HIERARCHY
ROOT Hips
{
	OFFSET 0.000000 0.000000 0.000000
	CHANNELS 6 Xposition Yposition Zposition Zrotation Yrotation Xrotation 
	JOINT LHipJoint
	{
		OFFSET 0.000000 0.000000 0.000000
		CHANNELS 3 Zrotation Yrotation Xrotation
		JOINT LeftUpLeg
		{
			OFFSET 1.363060 -1.794630 0.839290
			CHANNELS 3 Zrotation Yrotation Xrotation
			JOINT LeftLeg
			{
				OFFSET 2.448110 -6.726130 0.000000
				CHANNELS 3 Zrotation Yrotation Xrotation
				JOINT LeftFoot
				{
					OFFSET 2.562200 -7.039590 0.000000
					CHANNELS 3 Zrotation Yrotation Xrotation
					JOINT LeftToeBase
					{
						OFFSET 0.157640 -0.433110 2.322550
						CHANNELS 3 Zrotation Yrotation Xrotation
						End Site
						{
							OFFSET 0.000000 0.000000 0.000000
						}
					}
				}
			}
		}
	}
	JOINT RHipJoint
	{
		OFFSET 0.000000 0.000000 0.000000
		CHANNELS 3 Zrotation Yrotation Xrotation
		JOINT RightUpLeg
		{
			OFFSET -1.305520 -1.794630 0.839290
			CHANNELS 3 Zrotation Yrotation Xrotation
			JOINT RightLeg
			{
				OFFSET -2.542530 -6.985550 0.000000
				CHANNELS 3 Zrotation Yrotation Xrotation
				JOINT RightFoot
				{
					OFFSET -2.568260 -7.056230 0.000000
					CHANNELS 3 Zrotation Yrotation Xrotation
					JOINT RightToeBase
					{
						OFFSET -0.164730 -0.452590 2.363150
						CHANNELS 3 Zrotation Yrotation Xrotation
						End Site
						{
							OFFSET 0.000000 0.000000 0.000000
						}
					}
				}
			}
		}
	}
	JOINT LowerBack
	{
		OFFSET 0.000000 0.000000 0.000000
		CHANNELS 3 Zrotation Yrotation Xrotation
		JOINT Spine
		{
			OFFSET 0.028270 2.035590 -0.193380
			CHANNELS 3 Zrotation Yrotation Xrotation
			JOINT Spine1
			{
				OFFSET 0.056720 2.048850 -0.042750
				CHANNELS 3 Zrotation Yrotation Xrotation
				JOINT Neck
				{
					OFFSET 0.000000 0.000000 0.000000
					CHANNELS 3 Zrotation Yrotation Xrotation
					JOINT Neck1
					{
						OFFSET -0.054170 1.746240 0.172020
						CHANNELS 3 Zrotation Yrotation Xrotation
						JOINT Head
						{
							OFFSET 0.104070 1.761360 -0.123970
							CHANNELS 3 Zrotation Yrotation Xrotation
							End Site
							{
								OFFSET 0.000000 0.000000 0.000000
							}
						}
					}
				}
				JOINT LeftShoulder
				{
					OFFSET 0.000000 0.000000 0.000000
					CHANNELS 3 Zrotation Yrotation Xrotation
					JOINT LeftArm
					{
						OFFSET 3.362410 1.200890 -0.311210
						CHANNELS 3 Zrotation Yrotation Xrotation
						JOINT LeftForeArm
						{
							OFFSET 4.983000 -0.000000 -0.000000
							CHANNELS 3 Zrotation Yrotation Xrotation
							JOINT LeftHand
							{
								OFFSET 3.483560 -0.000000 -0.000000
								CHANNELS 3 Zrotation Yrotation Xrotation
								JOINT LeftFingerBase
								{
									OFFSET 0.000000 0.000000 0.000000
									CHANNELS 3 Zrotation Yrotation Xrotation
									JOINT LeftHandIndex1
									{
										OFFSET 0.715260 -0.000000 -0.000000
										CHANNELS 3 Zrotation Yrotation Xrotation
										End Site
										{
											OFFSET 0.000000 0.000000 0.000000
										}
									}
								}
								JOINT LThumb
								{
									OFFSET 0.000000 0.000000 0.000000
									CHANNELS 3 Zrotation Yrotation Xrotation
									End Site
									{
										OFFSET 0.000000 0.000000 0.000000
									}
								}
							}
						}
					}
				}
				JOINT RightShoulder
				{
					OFFSET 0.000000 0.000000 0.000000
					CHANNELS 3 Zrotation Yrotation Xrotation
					JOINT RightArm
					{
						OFFSET -3.136600 1.374050 -0.404650
						CHANNELS 3 Zrotation Yrotation Xrotation
						JOINT RightForeArm
						{
							OFFSET -5.241900 -0.000000 -0.000000
							CHANNELS 3 Zrotation Yrotation Xrotation
							JOINT RightHand
							{
								OFFSET -3.444170 -0.000000 -0.000000
								CHANNELS 3 Zrotation Yrotation Xrotation
								JOINT RightFingerBase
								{
									OFFSET 0.000000 0.000000 0.000000
									CHANNELS 3 Zrotation Yrotation Xrotation
									JOINT RightHandIndex1
									{
										OFFSET -0.622530 -0.000000 -0.000000
										CHANNELS 3 Zrotation Yrotation Xrotation
										End Site
										{
											OFFSET 0.000000 0.000000 0.000000
										}
									}
								}
								JOINT RThumb
								{
									OFFSET 0.000000 0.000000 0.000000
									CHANNELS 3 Zrotation Yrotation Xrotation
									End Site
									{
										OFFSET 0.000000 0.000000 0.000000
									}
								}
							}
						}
					}
				}
			}
		}
	}
}
MOTION
Frames: 11
Frame Time: 0.008333
24.676602 15.365824 1.883848 142.807754 -86.856876 -114.893401 -7.747474 -0.937367 7.330979 -3.994077 -15.499338 -77.355950 -0.319943 2.469929 49.283572 2.086092 7.094613 -10.114462 0.253699 0.000000 -26.931600 10.835543 -4.792081 0.636467 5.503859 -7.896682 8.293251 2.516441 0.780707 1.524251 0.497625 4.942711 -0.610611 0.311599 -0.000000 -78.502701 -6.115623 1.611783 -7.971441 -2.156519 1.927148 -5.278028 -5.481038 1.768467 -1.824079 7.619833 0.706913 -4.798501 -3.325575 -0.296036 0.724878 0.000000 0.000000 0.000000 -3.676318 7.668476 4.445039 -57.789927 26.992500 1.743301 -5.126073 -4.867388 -0.004380 2.614436 2.328617 0.057143 -0.150158 -0.049033 -0.000000 0.000000 0.000000 0.000000 0.000000 0.000000 0.000000 12.143905 8.975974 -0.172757 76.964239 55.018736 40.756247 1.211920 55.017822 0.001841 0.785104 9.838958 0.075272 -0.038046 -0.462293 -0.000000 0.000000 0.000000 0.000000 0.000000 0.000000 0.000000 
24.408257 15.383502 1.879908 140.742952 -86.863688 -112.566044 -7.641601 -0.910049 7.417797 -3.966420 -16.019738 -77.131893 -0.191121 2.456099 50.409271 2.301336 7.938377 -10.927412 0.136000 -0.000000 -25.753800 11.016958 -4.987384 0.747266 5.195178 -7.746042 7.422445 2.322533 0.426337 3.448658 0.483533 4.578403 2.378399 0.449400 -0.000000 -83.008900 -6.381811 1.572863 -8.229280 -2.241799 1.917958 -5.330587 -5.562854 1.759035 -1.839202 7.805568 0.748208 -4.821757 -3.387032 -0.300360 0.714021 0.000000 0.000000 0.000000 -3.504521 7.501837 4.442879 -57.647565 26.135057 1.303977 -5.098366 -4.217397 -0.003980 3.044758 2.252241 0.063749 -0.147824 -0.043924 -0.000000 0.000000 0.000000 0.000000 0.000000 0.000000 0.000000 12.590144 8.969309 -0.103165 76.985281 54.206440 39.775553 1.232687 54.368502 0.000306 0.455657 9.951648 0.045620 -0.032031 -0.465179 -0.000000 0.000000 0.000000 0.000000 0.000000 0.000000 0.000000 
24.138802 15.408389 1.878479 139.076746 -86.891040 -110.671574 -7.568215 -0.870966 7.490195 -3.995948 -16.434152 -76.730008 -0.098573 2.431953 51.274939 2.487218 8.642275 -11.740885 -0.006600 0.000000 -24.644800 11.178688 -5.173184 0.841050 4.949129 -7.642216 6.351523 2.088457 0.052595 5.714848 0.433979 4.208412 5.691206 0.602400 -0.000000 -86.927299 -6.588819 1.530103 -8.459905 -2.314258 1.900109 -5.374248 -5.649481 1.740797 -1.842570 7.990427 0.800581 -4.838893 -3.454696 -0.305143 0.704810 0.000000 0.000000 0.000000 -3.336018 7.338333 4.436832 -57.600444 25.170437 0.917900 -5.057874 -3.599332 -0.003529 3.507338 2.148724 0.069458 -0.144732 -0.038953 -0.000000 0.000000 0.000000 0.000000 0.000000 0.000000 0.000000 13.059407 8.955248 -0.033187 77.012664 53.245294 38.813052 1.256943 53.671104 -0.001297 0.096793 10.078053 0.012367 -0.024944 -0.466754 -0.000000 0.000000 0.000000 0.000000 0.000000 0.000000 0.000000 
23.869679 15.440506 1.878905 137.484399 -86.930547 -108.909644 -7.515609 -0.815609 7.540958 -4.113202 -16.756259 -76.115423 -0.043593 2.398419 51.889683 2.639230 9.193208 -12.543830 -0.168200 -0.000000 -23.619799 11.343627 -5.332426 0.904498 4.717018 -7.658586 5.070432 1.809256 -0.326597 8.364864 0.343384 3.895290 9.237322 0.783900 -0.000000 -89.856400 -6.752845 1.478432 -8.640442 -2.377064 1.869376 -5.406309 -5.741109 1.709488 -1.841845 8.176356 0.865163 -4.839547 -3.526845 -0.310372 0.700101 0.000000 0.000000 0.000000 -3.168835 7.142182 4.427528 -57.658938 24.146000 0.562010 -5.008379 -3.046384 -0.003093 3.980465 2.031227 0.074070 -0.141094 -0.034156 -0.000000 0.000000 0.000000 0.000000 0.000000 0.000000 0.000000 13.549606 8.930578 0.034749 77.065356 52.143701 37.878328 1.283459 52.891980 -0.002940 -0.284343 10.212302 -0.023790 -0.017134 -0.466793 -0.000000 0.000000 0.000000 0.000000 0.000000 0.000000 0.000000 
23.602112 15.479557 1.881305 135.962321 -86.980332 -107.284038 -7.485913 -0.747358 7.563365 -4.315047 -16.979108 -75.283313 -0.023596 2.358267 52.278186 2.754184 9.582416 -13.327823 -0.341700 0.000000 -22.700900 11.509648 -5.446103 0.936985 4.505292 -7.781035 3.591744 1.487592 -0.689717 11.399766 0.202937 3.616197 12.879693 0.987700 0.000000 -91.419400 -6.869113 1.417296 -8.759161 -2.427626 1.824311 -5.423192 -5.832512 1.663624 -1.833203 8.353923 0.941381 -4.825928 -3.599195 -0.315660 0.699407 0.000000 0.000000 0.000000 -2.995644 6.940646 4.415527 -57.833615 23.020463 0.258288 -4.949617 -2.536562 -0.002710 4.447096 1.903982 0.077182 -0.137052 -0.029403 -0.000000 0.000000 0.000000 0.000000 0.000000 0.000000 0.000000 14.030040 8.891854 0.089794 77.175243 50.916419 36.976022 1.310641 51.998217 -0.004555 -0.673218 10.350895 -0.061656 -0.009069 -0.464998 -0.000000 0.000000 0.000000 0.000000 0.000000 0.000000 0.000000 
23.337472 15.525336 1.884607 134.288312 -87.023781 -105.580861 -7.463637 -0.660055 7.553915 -4.625227 -17.121819 -74.220753 -0.037825 2.310989 52.450777 2.835542 9.829346 -14.082564 -0.519600 -0.000000 -21.906500 11.692346 -5.491977 0.938165 4.283457 -8.004598 1.932642 1.133386 -1.015057 14.806844 0.012017 3.341721 16.430386 1.192200 0.000000 -91.361100 -6.961550 1.343527 -8.807900 -2.470765 1.763359 -5.425285 -5.923991 1.601361 -1.824517 8.527209 1.028198 -4.789327 -3.669947 -0.320977 0.705100 0.000000 0.000000 0.000000 -2.815863 6.693521 4.400642 -58.121331 21.851855 -0.000390 -4.886048 -2.117056 -0.002444 4.883382 1.787418 0.079196 -0.132859 -0.024766 -0.000000 0.000000 0.000000 0.000000 0.000000 0.000000 0.000000 14.501243 8.835469 0.133910 77.352426 49.576230 36.094367 1.338260 50.960242 -0.006052 -1.050760 10.486672 -0.099332 -0.001260 -0.461229 -0.000000 0.000000 0.000000 0.000000 0.000000 0.000000 0.000000 
23.076301 15.577353 1.888879 132.587981 -87.062164 -103.919989 -7.453094 -0.559773 7.510548 -5.020880 -17.174817 -72.949701 -0.081118 2.258353 52.434532 2.885958 9.947758 -14.803026 -0.695600 -0.000000 -21.256600 11.875041 -5.458708 0.916366 4.087678 -8.254239 0.126597 0.770148 -1.287145 18.539464 -0.223816 2.956919 19.673124 1.325400 -0.000000 -89.583200 -7.023481 1.258471 -8.789454 -2.503608 1.687071 -5.410925 -6.010613 1.523169 -1.807912 8.688221 1.120296 -4.738288 -3.735357 -0.325904 0.714925 0.000000 0.000000 0.000000 -2.622559 6.443297 4.382019 -58.518440 20.579419 -0.178218 -4.817069 -1.756855 -0.002318 5.274768 1.685107 0.080310 -0.128669 -0.020074 -0.000000 0.000000 0.000000 0.000000 0.000000 0.000000 0.000000 14.935750 8.755683 0.159515 77.616197 48.147235 35.222195 1.365928 49.753526 -0.007323 -1.397523 10.619423 -0.134823 0.005847 -0.455294 -0.000000 0.000000 0.000000 0.000000 0.000000 0.000000 0.000000 
22.819347 15.635222 1.893212 130.763605 -87.082716 -102.200699 -7.443779 -0.443081 7.435014 -5.505189 -17.154397 -71.476336 -0.150511 2.199047 52.238004 2.913364 9.973399 -15.484450 -0.865200 0.000000 -20.760700 12.059731 -5.342438 0.872707 3.907813 -8.506751 -1.800271 0.423079 -1.504468 22.548120 -0.487714 2.376281 22.393785 1.310900 0.000000 -86.258900 -7.073052 1.161046 -8.705527 -2.530074 1.595839 -5.382274 -6.093293 1.429173 -1.790056 8.840813 1.216707 -4.667871 -3.794620 -0.330452 0.730193 0.000000 0.000000 0.000000 -2.422996 6.154982 4.358649 -59.006466 19.261191 -0.263135 -4.747034 -1.511178 -0.002364 5.600732 1.618734 0.081526 -0.124704 -0.015444 -0.000000 0.000000 0.000000 0.000000 0.000000 0.000000 0.000000 15.337222 8.651490 0.172911 77.960949 46.643391 34.325439 1.394405 48.363597 -0.008256 -1.690753 10.741476 -0.165628 0.011813 -0.447163 -0.000000 0.000000 0.000000 0.000000 0.000000 0.000000 0.000000 
22.566643 15.698487 1.897313 128.877773 -87.083714 -100.477267 -7.436118 -0.313244 7.331087 -6.056367 -17.064250 -69.824996 -0.241150 2.132781 51.875132 2.924639 9.936119 -16.126829 -1.026400 -0.000000 -20.421200 12.235262 -5.153860 0.809340 3.760120 -8.731230 -3.825117 0.113774 -1.679437 26.764904 -0.761089 1.506713 24.420592 1.072200 -0.000000 -81.812500 -7.112048 1.052013 -8.563239 -2.550294 1.490727 -5.340055 -6.170731 1.320437 -1.768029 8.983519 1.313626 -4.584046 -3.846669 -0.334459 0.749226 0.000000 0.000000 0.000000 -2.221320 5.844488 4.329145 -59.563200 17.883612 -0.221595 -4.677331 -1.387380 -0.002581 5.849346 1.595326 0.083641 -0.121093 -0.010851 -0.000000 0.000000 0.000000 0.000000 0.000000 0.000000 0.000000 15.698746 8.520917 0.175662 78.381925 45.085461 33.371006 1.424560 46.784245 -0.008771 -1.912531 10.849441 -0.189450 0.016376 -0.436818 -0.000000 0.000000 0.000000 0.000000 0.000000 0.000000 0.000000 
22.318436 15.766788 1.900899 126.979624 -87.062204 -98.789495 -7.429777 -0.172847 7.204294 -6.654175 -16.911966 -68.019805 -0.348929 2.058548 51.351624 2.926918 9.866305 -16.731491 -1.179099 0.000000 -20.231700 12.395105 -4.910776 0.727768 3.651855 -8.914411 -5.932672 -0.148769 -1.832281 31.110220 -1.028852 0.299896 25.652102 0.574300 0.000001 -76.839200 -7.144330 0.932330 -8.372309 -2.565328 1.373304 -5.286186 -6.243065 1.198568 -1.741121 9.116747 1.408447 -4.491600 -3.891645 -0.337886 0.770650 0.000000 0.000000 0.000000 -2.026733 5.517511 4.292094 -60.160380 16.453331 -0.022291 -4.609897 -1.408467 -0.002956 6.012419 1.621340 0.087058 -0.117924 -0.006339 -0.000000 0.000000 0.000000 0.000000 0.000000 0.000000 0.000000 16.021253 8.364236 0.172575 78.864244 43.490828 32.318570 1.457657 45.019204 -0.008833 -2.052436 10.940317 -0.205084 0.019457 -0.424358 -0.000000 0.000000 0.000000 0.000000 0.000000 0.000000 0.000000 
22.074038 15.839743 1.903617 125.124010 -87.013796 -97.178878 -7.423587 -0.023694 7.061329 -7.281832 -16.708550 -66.083753 -0.470622 1.974639 50.664818 2.926837 9.791848 -17.299426 -1.324200 -0.000000 -20.177600 12.537416 -4.631826 0.631294 3.581709 -9.050818 -8.113301 -0.367878 -1.982484 35.497270 -1.282588 -1.233459 26.060016 -0.158800 -0.000000 -71.921200 -7.176319 0.802622 -8.145556 -2.577055 1.245087 -5.223610 -6.311486 1.065115 -1.709890 9.242969 1.501846 -4.394358 -3.930701 -0.340785 0.793304 0.000000 0.000000 0.000000 -1.850033 5.176193 4.246696 -60.765818 14.987028 0.361351 -4.546556 -1.603478 -0.003450 6.087316 1.697794 0.091976 -0.115237 -0.001992 -0.000000 0.000000 0.000000 0.000000 0.000000 0.000000 0.000000 16.312205 8.185604 0.169954 79.385629 41.870895 31.118280 1.494868 43.085376 -0.008439 -2.102476 11.006139 -0.211230 0.021050 -0.409944 -0.000000 0.000000 0.000000 0.000000 0.000000 0.000000 0.000000 
